<?xml version='1.0' encoding='iso-8859-1'?>
<!-- Uploaded to: SVG Repo, www.svgrepo.com, Generator: SVG Repo Mixer Tools -->
<svg fill="#000000" height="800px" width="800px" version="1.1" xmlns="http://www.w3.org/2000/svg" viewBox="0 0 470.002 470.002" xmlns:xlink="http://www.w3.org/1999/xlink" enable-background="new 0 0 470.002 470.002">
  <g>
    <path d="m411.033,146.683h-9.045v-23.144c0-25.859-21.038-46.898-46.898-46.898h-26.422v-22.5c0-4.142-3.357-7.5-7.5-7.5h-48.624l15.516-36.183c1.633-3.807-0.13-8.216-3.937-9.849-3.807-1.632-8.217,0.13-9.849,3.937l-18.051,42.095h-40.323l-18.05-42.095c-1.633-3.808-6.042-5.569-9.849-3.937-3.807,1.633-5.569,6.042-3.937,9.849l15.516,36.183h-48.623c-4.142,0-7.5,3.358-7.5,7.5v22.5h-28.544c-25.86,0-46.898,21.039-46.898,46.898v23.144h-9.045c-11.304,0-20.5,9.196-20.5,20.5v50.88c0,4.142 3.358,7.5 7.5,7.5s7.5-3.358 7.5-7.5v-50.88c0-3.033 2.467-5.5 5.5-5.5h9.045v245.074c0,6.463 3.531,12.105 8.755,15.135v40.61c0,4.142 3.358,7.5 7.5,7.5h56.159c4.142,0 7.5-3.358 7.5-7.5v-15.746c0-4.142-3.358-7.5-7.5-7.5s-7.5,3.358-7.5,7.5v8.246h-41.16v-30.746h286.464v30.746h-41.159v-8.246c0-4.142-3.357-7.5-7.5-7.5s-7.5,3.358-7.5,7.5v15.746c0,4.142 3.357,7.5 7.5,7.5h56.159c4.143,0 7.5-3.358 7.5-7.5v-40.611c5.224-3.031 8.755-8.673 8.755-15.135v-245.073h9.045c3.032,0 5.5,2.467 5.5,5.5v50.88c0,4.142 3.357,7.5 7.5,7.5s7.5-3.358 7.5-7.5v-50.88c0-11.304-9.196-20.5-20.5-20.5zm-252.576-85.042h52.477c0.066,7.10543e-15 50.192,7.10543e-15 50.192,7.10543e-15 0.066,0 52.543,0 52.543,0v15h-155.212v-15zm-75.443,61.898c0-17.588 14.31-31.898 31.898-31.898h240.178c17.589,0 31.898,14.31 31.898,31.898v23.144h-303.974v-23.144zm303.974,249.482h-47.415c-1.355,0-2.5-1.145-2.5-2.5v-15c0-1.355 1.145-2.5 2.5-2.5h24.915c4.143,0 7.5-3.358 7.5-7.5s-3.357-7.5-7.5-7.5h-24.915c-9.649,0-17.5,7.851-17.5,17.5v15c0,9.649 7.851,17.5 17.5,17.5h47.415v18.735c0,1.355-1.145,2.5-2.5,2.5h-298.974c-1.355,0-2.5-1.145-2.5-2.5v-18.735h47.415c9.649,0 17.5-7.851 17.5-17.5v-15c0-9.649-7.851-17.5-17.5-17.5h-24.915c-4.142,0-7.5,3.358-7.5,7.5s3.358,7.5 7.5,7.5h24.915c1.355,0 2.5,1.145 2.5,2.5v15c0,1.355-1.145,2.5-2.5,2.5h-47.415v-211.338h144.487v140.104h-121.987c-4.142,0-7.5,3.358-7.5,7.5s3.358,7.5 7.5,7.5h258.975c4.143,0 7.5-3.358 7.5-7.5s-3.357-7.5-7.5-7.5h-121.988v-140.104h144.487v211.338z"/>
    <path d="m370.001,119.162c0-4.142-3.357-7.5-7.5-7.5h-255c-4.142,0-7.5,3.358-7.5,7.5s3.358,7.5 7.5,7.5h255c4.143,0 7.5-3.358 7.5-7.5z"/>
  </g>
</svg>